PathFileType	3	(X/Y/Z)	C:\Users\koon_\Desktop\
DataRate	CameraRate	NumFrames	NumMarkers	Units	OrigDataRate	OrigDataStartFrame	OrigNumFrames
100.0	100.0	8	27	mm	100.0	4530	5176	
Frame#	Time	get:LFHD			get:RFHD			get:LBHD			get:RBHD			get:C7			get:T10			get:CLAV			get:STRN			get:RBAK			get:LSHO			get:LUPA			get:LELB			get:LFRA			get:LWRA			get:LWRB			get:LFIN			get:RSHO			get:RUPA			get:RELB			get:RFRA			get:RWRA			get:RWRB			get:RFIN			get:LASI			get:RASI			get:LPSI			get:RPSI			
		X1	Y1	Z1	X2	Y2	Z2	X3	Y3	Z3	X4	Y4	Z4	X5	Y5	Z5	X6	Y6	Z6	X7	Y7	Z7	X8	Y8	Z8	X9	Y9	Z9	X10	Y10	Z10	X11	Y11	Z11	X12	Y12	Z12	X13	Y13	Z13	X14	Y14	Z14	X15	Y15	Z15	X16	Y16	Z16	X17	Y17	Z17	X18	Y18	Z18	X19	Y19	Z19	X20	Y20	Z20	X21	Y21	Z21	X22	Y22	Z22	X23	Y23	Z23	X24	Y24	Z24	X25	Y25	Z25	X26	Y26	Z26	X27	Y27	Z27	
4530	45.29	82.296539	1578.0104	-40.515644	-74.433189	1568.3091	-36.373112	73.842827	1570.9858	-165.27936	-52.427063	1574.545	-181.75487	1.4271635	1388.7906	-182.38818	4.3760695	1128.437	-225.11768	11.583903	1306.9742	-4.9111981	30.340963	1118.8087	37.360249	-81.653778	1318.5229	-209.79996	170.6915	1376.0553	-109.9029	228.25851	1231.2238	-109.02802	245.37646	1051.1674	-146.82474	243.69362	950.55438	-73.330185	234.72005	854.99182	-59.137741	272.95224	854.47723	-118.0845	288.10294	774.01398	-79.049522	-148.12712	1370.8856	-92.78331	-216.13786	1153.728	-75.430344	-228.51283	1050.5752	-132.13208	-216.04141	980.80841	-53.63728	-199.80769	825.6972	-38.175991	-246.20435	829.93921	-96.439445	-246.0934	759.8822	-36.12035	146.45073	933.86798	-39.407326	-129.32248	920.7077	-33.947594	56.749344	967.54718	-233.65236	-50.613373	957.62012	-233.07732
4531	45.3	82.911255	1577.9404	-40.192772	-73.857086	1568.3624	-36.318581	74.704285	1570.8571	-164.98216	-51.482376	1574.496	-181.69849	1.9521037	1389.0824	-182.34036	4.2653928	1128.6624	-224.96361	12.154065	1307.181	-4.9652305	30.464418	1118.9061	37.21957	-81.6073	1319.4041	-209.62885	171.19572	1375.9043	-110.07981	228.6907	1231.0299	-109.4949	245.64334	1050.9623	-147.32758	244.20323	950.6311	-73.431488	235.33632	855.27228	-58.683411	273.25714	854.33875	-117.7346	288.76797	774.32648	-78.139465	-147.35561	1372.079	-92.281532	-215.79411	1155.095	-74.659088	-228.69917	1052.0818	-131.31026	-215.84358	982.10699	-52.957928	-199.74854	826.89777	-37.892391	-246.47194	831.39142	-95.985657	-246.14363	761.11157	-35.842491	146.55255	933.84814	-39.279709	-129.26129	920.75842	-33.91048	56.912094	967.52283	-233.52168	-50.445534	957.64624	-233.01952
4532	45.31	83.466972	1577.8806	-39.876709	-73.196579	1568.4286	-36.277538	75.618584	1570.7384	-164.64674	-50.588943	1574.4407	-181.63855	2.4462521	1389.322	-182.23117	4.1336803	1128.8806	-224.70439	12.724276	1307.3844	-4.8235841	30.676926	1119.0276	37.065414	-81.485405	1320.1444	-209.36325	171.77908	1375.7749	-110.22982	229.09509	1230.8129	-109.98234	245.95844	1050.7291	-147.75389	244.74773	950.68512	-73.528587	236.01904	855.56891	-58.16983	273.57657	854.15546	-117.44336	289.50903	774.68573	-77.225883	-146.60278	1373.2657	-91.815323	-215.38969	1156.5244	-73.930214	-228.85918	1053.454	-130.23911	-215.63466	983.42896	-52.233269	-199.74969	828.06012	-37.699501	-246.95293	832.83624	-95.491936	-246.09732	762.35345	-35.475212	146.57182	933.8667	-39.153465	-129.17169	920.80969	-33.877029	57.038399	967.51965	-233.44266	-50.338135	957.59607	-232.89314
4533	45.32	84.14389	1577.8065	-39.479027	-72.592575	1568.4739	-36.241322	76.507607	1570.6063	-164.35107	-49.729481	1574.3696	-181.48932	3.0153844	1389.5431	-182.06387	3.9701965	1129.1642	-224.41348	13.31767	1307.5541	-4.7526169	30.835449	1119.1611	36.957211	-81.301071	1320.8306	-209.03058	172.34564	1375.5896	-110.4175	229.46228	1230.5896	-110.30135	246.16928	1050.4585	-148.14323	245.31303	950.73059	-73.52803	236.75761	855.81158	-57.63282	273.8642	853.93884	-117.14792	290.38556	775.07666	-76.371475	-145.73138	1374.4778	-91.353973	-215.01797	1157.9106	-73.134392	-229.40109	1054.8589	-129.11244	-215.43292	984.7428	-51.573013	-199.6474	829.34515	-37.528275	-247.29489	834.30249	-94.900459	-246.18169	763.61932	-35.17485	146.6447	933.85889	-38.982464	-129.12997	920.81494	-33.910572	57.143951	967.47656	-233.35049	-50.166088	957.6524	-232.88991
4534	45.33	84.792625	1577.7621	-39.145424	-71.926514	1568.5109	-36.19043	77.412086	1570.4984	-163.97255	-48.750538	1574.3492	-181.40179	3.6141074	1389.792	-181.97929	3.7580969	1129.4557	-224.1656	13.949927	1307.7944	-4.7935333	30.999905	1119.3092	36.878017	-80.952682	1321.592	-208.76544	172.8992	1375.4158	-110.60363	229.78059	1230.3501	-110.58792	246.35945	1050.246	-148.41891	245.87248	950.73584	-73.552948	237.53053	856.08551	-57.06015	274.07556	853.75366	-116.82223	291.2337	775.47437	-75.620247	-144.87134	1375.7211	-90.951134	-214.64699	1159.3116	-72.430367	-229.13002	1056.5646	-128.73352	-215.24004	986.10919	-50.932613	-199.73344	830.56439	-37.327354	-247.70201	835.7959	-94.422157	-246.25993	764.9469	-34.743126	146.6665	933.86298	-38.891777	-129.09618	920.86511	-33.963982	57.271156	967.4491	-233.29076	-50.033333	957.61316	-232.81621
4535	45.34	85.509842	1577.666	-38.74987	-71.262878	1568.5679	-36.072159	78.318626	1570.3867	-163.62903	-47.812576	1574.3467	-181.29965	4.2057209	1390.0962	-181.93497	3.581471	1129.7289	-223.9043	14.593797	1307.9766	-4.7222223	31.214085	1119.4557	36.821804	-80.516022	1322.3154	-208.65247	173.44577	1375.2209	-110.81921	230.0798	1230.0958	-110.89362	246.46448	1050.0026	-148.63788	246.39902	950.72174	-73.524696	238.3596	856.32501	-56.449074	274.33777	853.59204	-116.58902	292.11313	775.82886	-74.941452	-143.93539	1376.9633	-90.508919	-214.26166	1160.7776	-71.647095	-229.21136	1058.0753	-127.81799	-215.1622	987.50665	-50.315235	-199.86856	831.8703	-37.045773	-248.1187	837.3429	-93.975922	-246.45758	766.28912	-34.424091	146.73994	933.86816	-38.810646	-129.02463	920.89618	-33.926064	57.404396	967.45667	-233.24077	-49.873264	957.61981	-232.80365
4536	45.35	86.17498	1577.5876	-38.423473	-70.619019	1568.5975	-36.027805	79.264458	1570.2415	-163.30118	-46.894012	1574.3085	-181.17252	4.8214912	1390.3583	-181.86287	3.4232059	1129.9717	-223.5836	15.231274	1308.173	-4.6822047	31.412457	1119.5841	36.779694	-80.050026	1322.9198	-208.33089	173.9917	1374.984	-111.05447	230.38393	1229.8337	-111.12569	246.53151	1049.7781	-148.82323	246.93156	950.74396	-73.45536	239.15112	856.51239	-55.894012	274.51917	853.40863	-116.25211	292.95178	776.1181	-74.333649	-143.03812	1378.2606	-90.118568	-213.86606	1162.2432	-70.962654	-229.70148	1059.4369	-126.63383	-215.0786	988.87244	-49.717621	-200.04889	833.20551	-36.857533	-248.61411	838.88312	-93.559509	-246.77138	767.70038	-34.174839	146.77957	933.85785	-38.793259	-129.01945	920.94604	-33.980652	57.484573	967.42419	-233.18047	-49.747898	957.6134	-232.75032
4537	45.36	86.863701	1577.4893	-38.161591	-69.933792	1568.644	-35.923416	80.172546	1570.0837	-162.94009	-45.985291	1574.2598	-181.02643	5.4732141	1390.6176	-181.7709	3.2804356	1130.1738	-223.29852	15.896581	1308.4274	-4.6565881	31.648956	1119.7301	36.728107	-79.591202	1323.645	-208.01715	174.60933	1374.7776	-111.21579	230.74844	1229.546	-111.35379	246.5735	1049.459	-148.9787	247.47147	950.70416	-73.309166	239.90401	856.64618	-55.223564	274.64896	853.23065	-115.92248	293.80637	776.34589	-73.720367	-142.04366	1379.629	-89.653229	-213.4704	1163.7419	-70.305069	-229.38889	1061.1504	-126.27928	-215.06468	990.32971	-49.116413	-200.31204	834.54517	-36.739204	-249.06525	840.48535	-93.170303	-247.21519	769.20764	-33.995155	146.83855	933.85486	-38.728371	-128.98576	920.96899	-33.981613	57.585018	967.4231	-233.16644	-49.602547	957.66046	-232.81168
